<mxfile host="app.diagrams.net" modified="2024-04-01T15:04:50.227Z" agent="Mozilla/5.0 (Windows NT 10.0; Win64; x64) AppleWebKit/537.36 (KHTML, like Gecko) Chrome/123.0.0.0 Safari/537.36" etag="6au_CzRnU3a-FRj1NSke" version="24.2.1" type="device">
  <diagram name="Page-1" id="kpt_UqkZc62BcKGwblfp">
    <mxGraphModel dx="2284" dy="818" grid="1" gridSize="10" guides="1" tooltips="1" connect="1" arrows="1" fold="1" page="1" pageScale="1" pageWidth="850" pageHeight="1100" math="0" shadow="0">
      <root>
        <mxCell id="0" />
        <mxCell id="1" parent="0" />
        <mxCell id="KwY-qs0OSf5Fc8eG1Q08-2" value="" style="rounded=0;whiteSpace=wrap;html=1;movable=0;resizable=0;rotatable=0;deletable=0;editable=0;locked=1;connectable=0;" parent="1" vertex="1">
          <mxGeometry x="-21.5" y="340" width="1580" height="940" as="geometry" />
        </mxCell>
        <mxCell id="KbsGfuXtlkvc_dsFEO17-1" value="User(s)" style="shape=umlActor;verticalLabelPosition=bottom;verticalAlign=top;html=1;outlineConnect=0;" parent="1" vertex="1">
          <mxGeometry x="375" y="591" width="50" height="105" as="geometry" />
        </mxCell>
        <mxCell id="KbsGfuXtlkvc_dsFEO17-28" style="edgeStyle=orthogonalEdgeStyle;rounded=0;orthogonalLoop=1;jettySize=auto;html=1;entryX=0;entryY=0.25;entryDx=0;entryDy=0;fillColor=#dae8fc;strokeColor=#6c8ebf;strokeWidth=2;" parent="1" source="KbsGfuXtlkvc_dsFEO17-2" target="KbsGfuXtlkvc_dsFEO17-3" edge="1">
          <mxGeometry relative="1" as="geometry" />
        </mxCell>
        <mxCell id="KbsGfuXtlkvc_dsFEO17-2" value="&lt;div&gt;Goal&lt;/div&gt;&lt;div&gt;+&lt;/div&gt;Raw-Data.xml" style="shape=note;whiteSpace=wrap;html=1;backgroundOutline=1;darkOpacity=0.05;size=21;" parent="1" vertex="1">
          <mxGeometry x="500" y="540" width="80" height="100" as="geometry" />
        </mxCell>
        <mxCell id="KbsGfuXtlkvc_dsFEO17-7" style="edgeStyle=orthogonalEdgeStyle;rounded=0;orthogonalLoop=1;jettySize=auto;html=1;entryX=0.5;entryY=0;entryDx=0;entryDy=0;fillColor=#dae8fc;strokeColor=#6c8ebf;strokeWidth=2;" parent="1" source="KbsGfuXtlkvc_dsFEO17-3" target="KbsGfuXtlkvc_dsFEO17-6" edge="1">
          <mxGeometry relative="1" as="geometry" />
        </mxCell>
        <mxCell id="KbsGfuXtlkvc_dsFEO17-10" value="&lt;font style=&quot;font-size: 14px;&quot;&gt;User request / submit&lt;/font&gt;" style="edgeLabel;html=1;align=center;verticalAlign=middle;resizable=0;points=[];" parent="KbsGfuXtlkvc_dsFEO17-7" vertex="1" connectable="0">
          <mxGeometry x="-0.0118" y="2" relative="1" as="geometry">
            <mxPoint as="offset" />
          </mxGeometry>
        </mxCell>
        <mxCell id="KbsGfuXtlkvc_dsFEO17-3" value="&lt;span style=&quot;font-size: 16px;&quot;&gt;&lt;font style=&quot;font-size: 16px;&quot;&gt;&lt;b&gt;Service Controller&lt;/b&gt;&lt;/font&gt;&lt;/span&gt;&lt;div style=&quot;font-size: 14px;&quot;&gt;&lt;font style=&quot;font-size: 14px;&quot;&gt;(Java Spring&lt;/font&gt;&lt;span style=&quot;background-color: initial;&quot;&gt;Boot&lt;/span&gt;&lt;span style=&quot;background-color: initial;&quot;&gt;)&lt;/span&gt;&lt;/div&gt;" style="rounded=1;whiteSpace=wrap;html=1;" parent="1" vertex="1">
          <mxGeometry x="625" y="615" width="160" height="70" as="geometry" />
        </mxCell>
        <mxCell id="KbsGfuXtlkvc_dsFEO17-20" style="edgeStyle=orthogonalEdgeStyle;rounded=0;orthogonalLoop=1;jettySize=auto;html=1;exitX=0.625;exitY=0.2;exitDx=0;exitDy=0;exitPerimeter=0;entryX=1;entryY=0.5;entryDx=0;entryDy=0;fillColor=#f8cecc;strokeColor=#b85450;strokeWidth=1;" parent="1" source="KbsGfuXtlkvc_dsFEO17-4" target="KbsGfuXtlkvc_dsFEO17-16" edge="1">
          <mxGeometry relative="1" as="geometry">
            <mxPoint x="1110" y="530" as="targetPoint" />
            <Array as="points">
              <mxPoint x="1180" y="621" />
              <mxPoint x="1170" y="621" />
              <mxPoint x="1170" y="540" />
            </Array>
          </mxGeometry>
        </mxCell>
        <mxCell id="KbsGfuXtlkvc_dsFEO17-34" value="&lt;font style=&quot;font-size: 14px;&quot;&gt;Erros&lt;/font&gt;" style="edgeLabel;html=1;align=center;verticalAlign=middle;resizable=0;points=[];" parent="KbsGfuXtlkvc_dsFEO17-20" vertex="1" connectable="0">
          <mxGeometry x="0.3488" y="1" relative="1" as="geometry">
            <mxPoint x="7" y="-1" as="offset" />
          </mxGeometry>
        </mxCell>
        <mxCell id="KbsGfuXtlkvc_dsFEO17-21" style="edgeStyle=orthogonalEdgeStyle;rounded=0;orthogonalLoop=1;jettySize=auto;html=1;exitX=0.625;exitY=0.2;exitDx=0;exitDy=0;exitPerimeter=0;entryX=0.5;entryY=0;entryDx=0;entryDy=0;fillColor=#d5e8d4;strokeColor=#82b366;strokeWidth=2;" parent="1" source="KbsGfuXtlkvc_dsFEO17-4" target="KbsGfuXtlkvc_dsFEO17-3" edge="1">
          <mxGeometry relative="1" as="geometry">
            <Array as="points">
              <mxPoint x="1180" y="621" />
              <mxPoint x="1170" y="621" />
              <mxPoint x="1170" y="480" />
              <mxPoint x="705" y="480" />
            </Array>
          </mxGeometry>
        </mxCell>
        <mxCell id="KbsGfuXtlkvc_dsFEO17-37" value="&lt;font style=&quot;font-size: 14px;&quot;&gt;Result&lt;/font&gt;" style="edgeLabel;html=1;align=center;verticalAlign=middle;resizable=0;points=[];" parent="KbsGfuXtlkvc_dsFEO17-21" vertex="1" connectable="0">
          <mxGeometry x="-0.3272" y="-2" relative="1" as="geometry">
            <mxPoint as="offset" />
          </mxGeometry>
        </mxCell>
        <mxCell id="KbsGfuXtlkvc_dsFEO17-4" value="&lt;font style=&quot;font-size: 16px;&quot;&gt;&lt;b&gt;AI&amp;nbsp;&lt;/b&gt;&lt;/font&gt;&lt;div style=&quot;&quot;&gt;&lt;font style=&quot;font-size: 13px;&quot;&gt;&amp;nbsp; (ChatGPT &amp;amp; other &lt;br&gt;AI model)&lt;/font&gt;&lt;/div&gt;" style="ellipse;shape=cloud;whiteSpace=wrap;html=1;" parent="1" vertex="1">
          <mxGeometry x="1080" y="596" width="160" height="95" as="geometry" />
        </mxCell>
        <mxCell id="KbsGfuXtlkvc_dsFEO17-5" value="&lt;span style=&quot;font-size: 16px;&quot;&gt;&lt;b&gt;Task Processor&lt;/b&gt;&lt;/span&gt;&lt;div&gt;&lt;font style=&quot;font-size: 12px;&quot;&gt;&lt;i&gt;(see tech stack...)&lt;/i&gt;&lt;/font&gt;&lt;/div&gt;" style="rounded=1;whiteSpace=wrap;html=1;" parent="1" vertex="1">
          <mxGeometry x="800" y="615" width="160" height="70" as="geometry" />
        </mxCell>
        <mxCell id="KbsGfuXtlkvc_dsFEO17-8" style="edgeStyle=orthogonalEdgeStyle;rounded=0;orthogonalLoop=1;jettySize=auto;html=1;entryX=0.5;entryY=1;entryDx=0;entryDy=0;fillColor=#dae8fc;strokeColor=#6c8ebf;strokeWidth=2;" parent="1" source="KbsGfuXtlkvc_dsFEO17-6" target="KbsGfuXtlkvc_dsFEO17-5" edge="1">
          <mxGeometry relative="1" as="geometry" />
        </mxCell>
        <mxCell id="KbsGfuXtlkvc_dsFEO17-9" value="&lt;font style=&quot;font-size: 14px;&quot;&gt;Queue&lt;/font&gt;" style="edgeLabel;html=1;align=center;verticalAlign=middle;resizable=0;points=[];" parent="KbsGfuXtlkvc_dsFEO17-8" vertex="1" connectable="0">
          <mxGeometry x="-0.2769" relative="1" as="geometry">
            <mxPoint as="offset" />
          </mxGeometry>
        </mxCell>
        <mxCell id="KbsGfuXtlkvc_dsFEO17-6" value="&lt;span style=&quot;font-size: 16px;&quot;&gt;&lt;b&gt;Tasks Queue&lt;/b&gt;&lt;/span&gt;&lt;div&gt;&lt;font style=&quot;font-size: 14px;&quot;&gt;(RabbitMQ)&lt;/font&gt;&lt;/div&gt;" style="shape=process;whiteSpace=wrap;html=1;backgroundOutline=1;" parent="1" vertex="1">
          <mxGeometry x="620" y="790" width="170" height="60" as="geometry" />
        </mxCell>
        <mxCell id="KbsGfuXtlkvc_dsFEO17-11" value="&lt;font style=&quot;font-size: 15px;&quot;&gt;&lt;b&gt;Database&lt;/b&gt;&lt;/font&gt;&lt;div&gt;&lt;font style=&quot;font-size: 14px;&quot;&gt;(MySQL)&lt;/font&gt;&lt;/div&gt;" style="shape=cylinder3;whiteSpace=wrap;html=1;boundedLbl=1;backgroundOutline=1;size=15;" parent="1" vertex="1">
          <mxGeometry x="1010" y="750" width="70" height="90" as="geometry" />
        </mxCell>
        <mxCell id="KbsGfuXtlkvc_dsFEO17-13" style="edgeStyle=orthogonalEdgeStyle;rounded=0;orthogonalLoop=1;jettySize=auto;html=1;entryX=0.083;entryY=0.563;entryDx=0;entryDy=0;entryPerimeter=0;fillColor=#d5e8d4;strokeColor=#82b366;strokeWidth=2;" parent="1" source="KbsGfuXtlkvc_dsFEO17-5" target="KbsGfuXtlkvc_dsFEO17-4" edge="1">
          <mxGeometry relative="1" as="geometry" />
        </mxCell>
        <mxCell id="KbsGfuXtlkvc_dsFEO17-22" style="edgeStyle=orthogonalEdgeStyle;rounded=0;orthogonalLoop=1;jettySize=auto;html=1;entryX=0.5;entryY=0;entryDx=0;entryDy=0;fillColor=#f8cecc;strokeColor=#b85450;strokeWidth=1;" parent="1" source="KbsGfuXtlkvc_dsFEO17-16" target="KbsGfuXtlkvc_dsFEO17-5" edge="1">
          <mxGeometry relative="1" as="geometry" />
        </mxCell>
        <mxCell id="KbsGfuXtlkvc_dsFEO17-38" value="&lt;font style=&quot;font-size: 12px;&quot;&gt;Send errors back&lt;/font&gt;" style="edgeLabel;html=1;align=center;verticalAlign=middle;resizable=0;points=[];" parent="KbsGfuXtlkvc_dsFEO17-22" vertex="1" connectable="0">
          <mxGeometry x="-0.237" y="1" relative="1" as="geometry">
            <mxPoint as="offset" />
          </mxGeometry>
        </mxCell>
        <mxCell id="KbsGfuXtlkvc_dsFEO17-16" value="&lt;span style=&quot;font-size: 16px;&quot;&gt;&lt;b&gt;Dead Letter Queue&lt;/b&gt;&lt;/span&gt;&lt;div&gt;&lt;font style=&quot;font-size: 14px;&quot;&gt;(RabbitMQ)&lt;/font&gt;&lt;/div&gt;" style="shape=process;whiteSpace=wrap;html=1;backgroundOutline=1;" parent="1" vertex="1">
          <mxGeometry x="785" y="510" width="190" height="60" as="geometry" />
        </mxCell>
        <mxCell id="KbsGfuXtlkvc_dsFEO17-26" value="&lt;font style=&quot;font-size: 16px;&quot;&gt;UI &lt;/font&gt;&lt;font style=&quot;font-size: 14px;&quot;&gt;(React)&lt;/font&gt;" style="rounded=1;whiteSpace=wrap;html=1;rotation=90;" parent="1" vertex="1">
          <mxGeometry x="290" y="670" width="330" height="30" as="geometry" />
        </mxCell>
        <mxCell id="KbsGfuXtlkvc_dsFEO17-30" value="" style="endArrow=none;html=1;rounded=0;entryX=0;entryY=0.5;entryDx=0;entryDy=0;entryPerimeter=0;fillColor=#dae8fc;strokeColor=#6c8ebf;strokeWidth=2;" parent="1" target="KbsGfuXtlkvc_dsFEO17-2" edge="1">
          <mxGeometry width="50" height="50" relative="1" as="geometry">
            <mxPoint x="470" y="590" as="sourcePoint" />
            <mxPoint x="496" y="590" as="targetPoint" />
          </mxGeometry>
        </mxCell>
        <mxCell id="KbsGfuXtlkvc_dsFEO17-32" style="edgeStyle=orthogonalEdgeStyle;rounded=0;orthogonalLoop=1;jettySize=auto;html=1;exitX=1;exitY=0.75;exitDx=0;exitDy=0;entryX=0;entryY=0.5;entryDx=0;entryDy=0;entryPerimeter=0;startArrow=classic;startFill=1;fillColor=#ffe6cc;strokeColor=#d79b00;strokeWidth=2;" parent="1" source="KbsGfuXtlkvc_dsFEO17-5" target="KbsGfuXtlkvc_dsFEO17-11" edge="1">
          <mxGeometry relative="1" as="geometry" />
        </mxCell>
        <mxCell id="KbsGfuXtlkvc_dsFEO17-33" value="&lt;font style=&quot;font-size: 14px;&quot;&gt;Datas &amp;amp; Tasks status&lt;/font&gt;" style="edgeLabel;html=1;align=center;verticalAlign=middle;resizable=0;points=[];" parent="KbsGfuXtlkvc_dsFEO17-32" vertex="1" connectable="0">
          <mxGeometry x="-0.1268" y="4" relative="1" as="geometry">
            <mxPoint x="-3" y="3" as="offset" />
          </mxGeometry>
        </mxCell>
        <mxCell id="KbsGfuXtlkvc_dsFEO17-35" value="&lt;span style=&quot;color: rgb(0, 0, 0); font-family: Helvetica; font-style: normal; font-variant-ligatures: normal; font-variant-caps: normal; font-weight: 400; letter-spacing: normal; orphans: 2; text-align: center; text-indent: 0px; text-transform: none; widows: 2; word-spacing: 0px; -webkit-text-stroke-width: 0px; white-space: nowrap; background-color: rgb(255, 255, 255); text-decoration-thickness: initial; text-decoration-style: initial; text-decoration-color: initial; float: none; display: inline !important;&quot;&gt;&lt;font style=&quot;font-size: 12px;&quot;&gt;(e.g. AI generation errors)&lt;/font&gt;&lt;/span&gt;" style="text;whiteSpace=wrap;html=1;" parent="1" vertex="1">
          <mxGeometry x="1010" y="540" width="140" height="20" as="geometry" />
        </mxCell>
        <mxCell id="KbsGfuXtlkvc_dsFEO17-36" style="edgeStyle=orthogonalEdgeStyle;rounded=0;orthogonalLoop=1;jettySize=auto;html=1;exitX=0;exitY=0.75;exitDx=0;exitDy=0;fillColor=#d5e8d4;strokeColor=#82b366;strokeWidth=2;" parent="1" source="KbsGfuXtlkvc_dsFEO17-3" edge="1">
          <mxGeometry relative="1" as="geometry">
            <mxPoint x="470" y="667" as="targetPoint" />
          </mxGeometry>
        </mxCell>
      </root>
    </mxGraphModel>
  </diagram>
</mxfile>
